#define clock_icon_width 20
#define clock_icon_height 20
static unsigned char clock_icon_bits[] = {
   0x80, 0x1f, 0x00, 0x60, 0x62, 0x00, 0x18, 0x82, 0x01, 0x24, 0x40, 0x02,
   0x04, 0x02, 0x02, 0x0a, 0x07, 0x05, 0x02, 0x02, 0x04, 0x01, 0x02, 0x08,
   0x01, 0x02, 0x08, 0x01, 0x12, 0x08, 0x0f, 0x3e, 0x0f, 0x01, 0x10, 0x08,
   0x01, 0x00, 0x08, 0x02, 0x00, 0x04, 0x0a, 0x00, 0x05, 0x04, 0x00, 0x02,
   0x24, 0x42, 0x02, 0x18, 0x82, 0x01, 0x60, 0x62, 0x00, 0x80, 0x1f, 0x00 };
