#define heater_icon_width 20
#define heater_icon_height 20
static unsigned char heater_icon_bits[] = {
   0x00, 0x00, 0x00, 0x20, 0x49, 0x00, 0x90, 0x24, 0x00, 0x20, 0x49, 0x00,
   0x90, 0x24, 0x00, 0x20, 0x49, 0x00, 0x90, 0x24, 0x00, 0x00, 0x00, 0x00,
   0xb6, 0x6d, 0x03, 0x49, 0x92, 0x04, 0x49, 0x92, 0x04, 0x49, 0x92, 0x04,
   0x49, 0x92, 0x04, 0x49, 0x92, 0x04, 0x49, 0x92, 0x04, 0x49, 0x92, 0x04,
   0x49, 0x92, 0x04, 0x49, 0x92, 0x04, 0xb6, 0x6d, 0x03, 0x00, 0x00, 0x00 };
