#define light_icon_width 20
#define light_icon_height 20
static unsigned char light_icon_bits[] = {
   0x00, 0x0f, 0x00, 0x80, 0x1f, 0x00, 0x40, 0x20, 0x00, 0xc0, 0x3f, 0x00,
   0x40, 0x20, 0x00, 0xc0, 0x3f, 0x00, 0x40, 0x20, 0x00, 0xc0, 0x3f, 0x00,
   0x60, 0x69, 0x00, 0x30, 0xc0, 0x00, 0x98, 0x90, 0x01, 0x08, 0x00, 0x01,
   0x8c, 0x10, 0x03, 0x04, 0x0f, 0x02, 0x04, 0x00, 0x02, 0x04, 0x00, 0x02,
   0x0c, 0x00, 0x03, 0x18, 0x80, 0x01, 0x70, 0xe0, 0x00, 0x80, 0x1f, 0x00 };
