#define ph_icon_width 20
#define ph_icon_height 20
static unsigned char ph_icon_bits[] = {
   0x80, 0x1f, 0x00, 0xe0, 0x70, 0x00, 0x38, 0xc0, 0x01, 0x0c, 0x00, 0x03,
   0x04, 0x00, 0x02, 0x06, 0x00, 0x06, 0x02, 0x00, 0x04, 0xe3, 0x44, 0x0c,
   0x21, 0x45, 0x08, 0x21, 0x7d, 0x08, 0xe1, 0x44, 0x08, 0x21, 0x44, 0x08,
   0x23, 0x44, 0x0c, 0x02, 0x00, 0x04, 0x06, 0x00, 0x06, 0x04, 0x00, 0x02,
   0x0c, 0x00, 0x03, 0x38, 0xc0, 0x01, 0xe0, 0x70, 0x00, 0x80, 0x1f, 0x00 };
