#define temp_icon_width 20
#define temp_icon_height 20
static unsigned char temp_icon_bits[] = {
   0x00, 0x00, 0x00, 0x00, 0x0f, 0x00, 0x80, 0x10, 0x00, 0x80, 0x1e, 0x00,
   0x80, 0x10, 0x00, 0x80, 0x1e, 0x00, 0x80, 0x10, 0x00, 0x80, 0x1e, 0x00,
   0x80, 0x10, 0x00, 0x80, 0x1e, 0x00, 0x80, 0x10, 0x00, 0x80, 0x10, 0x00,
   0xc0, 0x30, 0x00, 0x20, 0x40, 0x00, 0x20, 0x40, 0x00, 0x20, 0x40, 0x00,
   0x60, 0x60, 0x00, 0x40, 0x20, 0x00, 0xc0, 0x39, 0x00, 0x00, 0x0f, 0x00 };
